<?xml version="1.0" encoding="UTF-8"?>
<svg version="1.1" xmlns="http://www.w3.org/2000/svg"
     viewBox="0 0 512 512" xml:space="preserve">

  <!-- Top-left box (white fill) -->
  <path style="fill:#ffffff;" d="M183.534,223.076H51.877c-7.334,0-13.279-5.945-13.279-13.279V91.42
      c0-7.334,5.945-13.279,13.279-13.279h131.656v144.935H183.534z"/>
  <path style="fill:#2D527C;" d="M183.534,237.85H51.877c-15.469,0-28.053-12.585-28.053-28.053V91.42
      c0-15.469,12.585-28.053,28.053-28.053h131.656c8.16,0,14.774,6.614,14.774,14.774v144.935
      C198.308,231.235,191.694,237.85,183.534,237.85z M53.373,208.301H168.76V92.915H53.373V208.301z"/>

  <!-- Top-right box (white fill, mirrored Bezier structure) -->
  <path style="fill:#ffffff;" d="M328.469,223.076H196.812c-7.334,0-13.279-5.945-13.279-13.279V91.42
      c0-7.334,5.945-13.279,13.279-13.279h131.656v144.935H328.469z"/>
<!-- Top-right box border -->
<path style="fill:#2D527C;" d="
  M328.469,237.85
  H196.812
  c-15.469,0-28.053-12.585-28.053-28.053
  V91.42
  c0-15.469,12.585-28.053,28.053-28.053
  H318.469
  c13.255,0,24,10.745,24,24
  v125.935
  c0,13.255-10.745,24-24,24
  Z
  M198.308,208.301
  h115.387
  V92.915
  H198.308
  V208.301
  Z"/>

  <!-- Bottom-left box (green fill) -->
  <path style="fill:#cdead9;" d="M183.534,497.226H51.877c-7.334,0-13.279-5.945-13.279-13.279V365.57
      c0-7.334,5.945-13.279,13.279-13.279h131.656v144.935H183.534z"/>
  <path style="fill:#2D527C;" d="M183.534,512H51.877c-15.469,0-28.053-12.585-28.053-28.053V365.568
      c0-15.469,12.585-28.053,28.053-28.053h131.656c8.16,0,14.774,6.614,14.774,14.774v144.935
      C198.308,505.386,191.694,512,183.534,512z M53.373,482.452H168.76V367.065H53.373V482.452z"/>

  <!-- Bottom-right box (green fill, mirrored Bezier structure) -->
  <path style="fill:#cdead9;" d="M328.469,497.226H196.812c-7.334,0-13.279-5.945-13.279-13.279V365.57
      c0-7.334,5.945-13.279,13.279-13.279h131.656v144.935H328.469z"/>
<!-- Bottom-right box border -->
<path style="fill:#2D527C;" d="
  M328.469,512
  H196.812
  c-15.469,0-28.053-12.585-28.053-28.053
  V365.568
  c0-15.469,12.585-28.053,28.053-28.053
  H318.469
  c13.255,0,24,10.745,24,24
  v125.935
  c0,13.255-10.745,24-24,24
  Z
  M198.308,482.452
  h115.387
  V367.065
  H198.308
  V482.452
  Z"/>

  <!-- Middle horizontal line -->
 <path style="fill:#2D527C;" d="M318,302.699H42.696c-8.16,0-14.774-6.214-14.774-13.874s6.614-13.874,14.774-13.874H320
    c8.158,0,14.774,6.214,14.774,13.874S326.158,302.699,318,302.699z"/>
</svg>
