<?xml version="1.0" encoding="iso-8859-1"?>
<svg version="1.1" id="Layer_1" xmlns="http://www.w3.org/2000/svg" xmlns:xlink="http://www.w3.org/1999/xlink"
     viewBox="0 0 512 512" xml:space="preserve">

<!-- Top-left box (white fill) -->
<path style="fill:#ffffff;" d="M183.534,223.076H51.877c-7.334,0-13.279-5.945-13.279-13.279V91.42
    c0-7.334,5.945-13.279,13.279-13.279h131.656v144.935H183.534z"/>
<path style="fill:#2D527C;" d="M183.534,237.85H51.877c-15.469,0-28.053-12.585-28.053-28.053V91.42
    c0-15.469,12.585-28.053,28.053-28.053h131.656c8.16,0,14.774,6.614,14.774,14.774v144.935
    C198.308,231.235,191.694,237.85,183.534,237.85z M53.373,208.301H168.76V92.915H53.373V208.301z"/>

<!-- Top-right box (white fill) -->
<path style="fill:#ffffff;" d="M328.469,223.076H196.812V78.141h131.656c7.334,0,13.279,5.945,13.279,13.279v118.377
    C341.748,217.131,335.803,223.076,328.469,223.076z"/>
<path style="fill:#2D527C;" d="M328.469,237.85H196.812c-8.16,0-14.774-6.614-14.774-14.774V78.141
    c0-8.16,6.614-14.774,14.774-14.774h131.656c8.158,0,14.774,6.614,14.774,14.774v144.935
    C343.243,231.235,336.627,237.85,328.469,237.85z M211.586,208.301h115.387V92.915H211.586V208.301z"/>

<!-- Bottom-left box (green fill) -->
<path style="fill:#cdead9;" d="M183.534,497.226H51.877c-7.334,0-13.279-5.945-13.279-13.279V365.57
    c0-7.334,5.945-13.279,13.279-13.279h131.656v144.935H183.534z"/>
<path style="fill:#2D527C;" d="M183.534,512H51.877c-15.469,0-28.053-12.585-28.053-28.053V365.568
    c0-15.469,12.585-28.053,28.053-28.053h131.656c8.16,0,14.774,6.614,14.774,14.774v144.935
    C198.308,505.386,191.694,512,183.534,512z M53.373,482.452H168.76V367.065H53.373V482.452z"/>

<!-- Bottom-right box (green fill) -->
<path style="fill:#cdead9;" d="M328.469,497.226H196.812V352.291h131.656c7.334,0,13.279,5.945,13.279,13.279v118.377
    C341.748,491.281,335.803,497.226,328.469,497.226z"/>
<path style="fill:#2D527C;" d="M328.469,512H196.812c-8.16,0-14.774-6.614-14.774-14.774V352.291
    c0-8.16,6.614-14.774,14.774-14.774h131.656c8.158,0,14.774,6.614,14.774,14.774v144.935
    C343.243,505.386,336.627,512,328.469,512z M211.586,482.452h115.387V367.065H211.586V482.452z"/>

<!-- Middle horizontal line (shortened and thinner) -->
<path style="fill:#2D527C;" d="M330.566,302.699H42.696c-8.16,0-14.774-6.214-14.774-13.874s6.614-13.874,14.774-13.874h287.87
    c8.158,0,14.774,6.214,14.774,13.874S338.724,302.699,330.566,302.699z"/>

</svg>