<?xml version="1.0" encoding="UTF-8"?>
<svg id="Layer_1" xmlns="http://www.w3.org/2000/svg" viewBox="0 0 56.95 44.06">
  <defs>
    <style>
      .cls-1 {
        fill: #434343;
      }

      .cls-2 {
        fill: #929191;
      }

      .cls-3 {
        fill: gray;
      }

      .cls-4 {
        fill: #d4d4d4;
      }

      .cls-5 {
        fill: #716e6e;
      }
    </style>
  </defs>
  <g id="a">
    <path class="cls-1" d="M0,18.93l29.95,25.13,27.01-15.97v-1.76l-26.8,15.48L0,16.65v2.28Z"/>
    <path class="cls-4" d="M11.03,10.41l30.02,25.11,1.15-.64L12.13,9.65l-1.09.76Z"/>
    <path class="cls-2" d="M3.04,14.9l30.05,25.21,7.96-4.59L11.03,10.41l-8,4.49Z"/>
    <path class="cls-2" d="M12.13,9.65l30.08,25.24,7.55-4.39L19.68,5.27l-7.56,4.38Z"/>
    <path class="cls-3" d="M42.1,35.56l11.31-6.69-11.31,6.69Z"/>
    <path class="cls-5" d="M0,16.65l30.15,25.16,2.94-1.7L3.04,14.9,0,16.65Z"/>
    <path class="cls-4" d="M49.75,30.47L19.68,5.27v-1.11l30.07,25.22,7.2-4.16v1.11l-7.2,4.13Z"/>
  </g>
  <polygon class="cls-4" points="19.68 4.16 26.89 0 56.95 25.22 56.13 25.7 42.17 13.98 41.36 13.3 26.87 1.14 20.48 4.83 19.68 4.16"/>
  <polygon class="cls-4" points="34.97 16.99 35.78 17.67 42.17 13.98 41.36 13.3 34.97 16.99"/>
  <line class="cls-4" x1="26.61" y1="21.81" x2="14.65" y2="7.81"/>
</svg>